{
  "source": "C:\\Users\\Peter\\Desktop\\stuff\\MIUN\\quantitative_research\\video_compression\\videos\\BVI-HD\\BVI-HD_CDVL_videos\\ORIG\\Diver_1920x1080_30fps.mp4",
  "output": "C:\\Users\\Peter\\Desktop\\stuff\\MIUN\\quantitative_research\\video_compression\\compressed_videos\\BVI-HD\\h264\\4\\Diver_1920x1080_30fps_h264.mp4",
  "codec": "h264",
  "ok": "Input #0, mov,mp4,m4a,3gp,3g2,mj2, from 'C:\\Users\\Peter\\Desktop\\stuff\\MIUN\\quantitative_research\\video_compression\\videos\\BVI-HD\\BVI-HD_CDVL_videos\\ORIG\\Diver_1920x1080_30fps.mp4':\n  Metadata:\n    major_brand     : isom\n    minor_version   : 512\n    compatible_brands: isomiso2avc1mp41\n    encoder         : Lavf54.28.101\n  Duration: 00:00:05.00, start: 0.000000, bitrate: 196798 kb/s\n  Stream #0:0[0x1](und): Video: h264 (High 4:4:4 Predictive) (avc1 / 0x31637661), yuv420p(progressive), 1920x1080, 196794 kb/s, 30 fps, 30 tbr, 30 tbn (default)\n    Metadata:\n      handler_name    : VideoHandler\n      vendor_id       : [0][0][0][0]\n[out#0/mp4 @ 000001f15be79cc0] Codec AVOption b:a (set bitrate (in bits/s)) has not been used for any stream. The most likely reason is either wrong type (e.g. a video option with no video streams) or that it is a private option of some decoder which was not actually used for any stream.\nStream mapping:\n  Stream #0:0 -> #0:0 (h264 (native) -> h264 (libx264))\nPress [q] to stop, [?] for help\n[libx264 @ 000001f15be7df00] using cpu capabilities: MMX2 SSE2Fast SSSE3 SSE4.2 AVX FMA3 BMI2 AVX2\n[libx264 @ 000001f15be7df00] profile High, level 5.0, 4:2:0, 8-bit\n[libx264 @ 000001f15be7df00] 264 - core 165 r3222 b35605a - H.264/MPEG-4 AVC codec - Copyleft 2003-2025 - http://www.videolan.org/x264.html - options: cabac=1 ref=5 deblock=1:0:0 analyse=0x3:0x113 me=hex subme=8 psy=1 psy_rd=1.00:0.00 mixed_ref=1 me_range=16 chroma_me=1 trellis=2 8x8dct=1 cqm=0 deadzone=21,11 fast_pskip=1 chroma_qp_offset=-2 threads=18 lookahead_threads=3 sliced_threads=0 nr=0 decimate=1 interlaced=0 bluray_compat=0 constrained_intra=0 bframes=3 b_pyramid=2 b_adapt=1 b_bias=0 direct=3 weightb=1 open_gop=0 weightp=2 keyint=250 keyint_min=25 scenecut=40 intra_refresh=0 rc_lookahead=50 rc=cbr mbtree=1 bitrate=4000 ratetol=1.0 qcomp=0.60 qpmin=0 qpmax=69 qpstep=4 vbv_maxrate=4000 vbv_bufsize=4000 nal_hrd=none filler=0 ip_ratio=1.40 aq=1:1.00\nOutput #0, mp4, to 'C:\\Users\\Peter\\Desktop\\stuff\\MIUN\\quantitative_research\\video_compression\\compressed_videos\\BVI-HD\\h264\\4\\Diver_1920x1080_30fps_h264.mp4':\n  Metadata:\n    major_brand     : isom\n    minor_version   : 512\n    compatible_brands: isomiso2avc1mp41\n    encoder         : Lavf62.3.100\n  Stream #0:0(und): Video: h264 (avc1 / 0x31637661), yuv420p(tv, progressive), 1920x1080, q=2-31, 4000 kb/s, 30 fps, 15360 tbn (default)\n    Metadata:\n      encoder         : Lavc62.11.100 libx264\n      handler_name    : VideoHandler\n      vendor_id       : [0][0][0][0]\n    Side data:\n      cpb: bitrate max/min/avg: 4000000/0/4000000 buffer size: 4000000 vbv_delay: N/A\nframe=    0 fps=0.0 q=0.0 size=       0KiB time=N/A bitrate=N/A speed=N/A elapsed=0:00:00.51    \nframe=    0 fps=0.0 q=0.0 size=       0KiB time=N/A bitrate=N/A speed=N/A elapsed=0:00:01.09    \nframe=    0 fps=0.0 q=0.0 size=       0KiB time=N/A bitrate=N/A speed=N/A elapsed=0:00:01.63    \nframe=    8 fps=3.7 q=30.0 size=       0KiB time=00:00:00.20 bitrate=   1.9kbits/s speed=0.0927x elapsed=0:00:02.15    \nframe=   25 fps=9.1 q=28.0 size=       0KiB time=00:00:00.76 bitrate=   0.5kbits/s speed=0.279x elapsed=0:00:02.74    \nframe=   44 fps= 13 q=28.0 size=     256KiB time=00:00:01.23 bitrate=1700.7kbits/s speed=0.375x elapsed=0:00:03.29    \nframe=   53 fps= 13 q=29.0 size=     512KiB time=00:00:01.70 bitrate=2467.5kbits/s speed=0.433x elapsed=0:00:03.93    \nframe=   69 fps= 15 q=29.0 size=     768KiB time=00:00:02.23 bitrate=2817.2kbits/s speed=0.49x elapsed=0:00:04.55    \nframe=   85 fps= 17 q=29.0 size=    1024KiB time=00:00:02.76 bitrate=3032.2kbits/s speed=0.537x elapsed=0:00:05.14    \nframe=  105 fps= 18 q=28.0 size=    1280KiB time=00:00:03.43 bitrate=3054.2kbits/s speed=0.597x elapsed=0:00:05.75    \nframe=  117 fps= 19 q=29.0 size=    1536KiB time=00:00:03.76 bitrate=3340.7kbits/s speed=0.597x elapsed=0:00:06.30    \nframe=  137 fps= 20 q=-1.0 size=    2048KiB time=00:00:04.50 bitrate=3728.4kbits/s speed=0.658x elapsed=0:00:06.84    \n[mp4 @ 000001f15be7c440] Starting second pass: moving the moov atom to the beginning of the file\n[out#0/mp4 @ 000001f15be79cc0] video:2361KiB audio:0KiB subtitle:0KiB other streams:0KiB global headers:0KiB muxing overhead: 0.111283%\nframe=  150 fps= 21 q=-1.0 Lsize=    2364KiB time=00:00:04.93 bitrate=3925.7kbits/s speed=0.686x elapsed=0:00:07.19    \n[libx264 @ 000001f15be7df00] frame I:1     Avg QP:24.60  size: 21425\n[libx264 @ 000001f15be7df00] frame P:38    Avg QP:24.27  size: 27016\n[libx264 @ 000001f15be7df00] frame B:111   Avg QP:25.29  size: 12337\n[libx264 @ 000001f15be7df00] consecutive B-frames:  1.3%  0.0%  0.0% 98.7%\n[libx264 @ 000001f15be7df00] mb I  I16..4: 75.9% 22.7%  1.4%\n[libx264 @ 000001f15be7df00] mb P  I16..4:  2.2%  6.2%  0.4%  P16..4: 54.9%  7.1%  9.7%  0.0%  0.0%    skip:19.5%\n[libx264 @ 000001f15be7df00] mb B  I16..4:  0.1%  0.7%  0.1%  B16..8: 49.0%  3.4%  0.4%  direct: 3.6%  skip:42.8%  L0:46.5% L1:51.5% BI: 2.0%\n[libx264 @ 000001f15be7df00] 8x8 transform intra:63.4% inter:88.4%\n[libx264 @ 000001f15be7df00] direct mvs  spatial:91.0% temporal:9.0%\n[libx264 @ 000001f15be7df00] coded y,uvDC,uvAC intra: 47.3% 50.7% 6.6% inter: 9.3% 28.0% 0.1%\n[libx264 @ 000001f15be7df00] i16 v,h,dc,p:  8% 21%  7% 64%\n[libx264 @ 000001f15be7df00] i8 v,h,dc,ddl,ddr,vr,hd,vl,hu:  7%  7%  5% 10% 17% 11% 18%  9% 15%\n[libx264 @ 000001f15be7df00] i4 v,h,dc,ddl,ddr,vr,hd,vl,hu:  7%  8% 10%  8% 16% 12% 16%  9% 15%\n[libx264 @ 000001f15be7df00] i8c dc,h,v,p: 41% 38% 13%  9%\n[libx264 @ 000001f15be7df00] Weighted P-Frames: Y:7.9% UV:0.0%\n[libx264 @ 000001f15be7df00] ref P L0: 51.2%  7.3% 25.6%  8.4%  7.2%  0.3%\n[libx264 @ 000001f15be7df00] ref B L0: 77.3% 16.3%  5.2%  1.3%\n[libx264 @ 000001f15be7df00] ref B L1: 93.5%  6.5%\n[libx264 @ 000001f15be7df00] kb/s:3867.82\n",
  "seconds": 7.572755575180054,
  "probe_out": {}
}